<?xml version="1.0" encoding="utf-8"?>
<!-- Generator: Adobe Illustrator 16.0.1, SVG Export Plug-In . SVG Version: 6.00 Build 0)  -->
<!DOCTYPE svg PUBLIC "-//W3C//DTD SVG 1.1//EN" "http://www.w3.org/Graphics/SVG/1.1/DTD/svg11.dtd">
<svg version="1.1" id="Layer_1" xmlns="http://www.w3.org/2000/svg" xmlns:xlink="http://www.w3.org/1999/xlink" x="0px" y="0px"
	 width="18px" height="18px" viewBox="129.125 50.686 18 18" enable-background="new 129.125 50.686 18 18" xml:space="preserve">
<g>
	<path fill="#352F29" d="M11.515,7.821H0.735c-0.338,0-0.61,0.274-0.61,0.611v18.136c0,0.339,0.272,0.611,0.61,0.611h10.78
		c0.337,0,0.61-0.272,0.61-0.611V8.432C12.125,8.095,11.852,7.821,11.515,7.821z M6.125,26.566c-0.393,0-0.712-0.317-0.712-0.711
		c0-0.396,0.319-0.713,0.712-0.713s0.712,0.317,0.712,0.713C6.837,26.249,6.518,26.566,6.125,26.566z M11.156,24.434H1.094V9.957
		h10.062V24.434z"/>
</g>
<path fill="#352F29" d="M33.247,2.135H14.003c-0.486,0-0.878,0.393-0.878,0.878v28.976c0,0.483,0.392,0.877,0.878,0.877h19.244
	c0.483,0,0.878-0.394,0.878-0.877V3.013C34.125,2.528,33.73,2.135,33.247,2.135z M23.625,31.988c-0.566,0-1.024-0.459-1.024-1.024
	c0-0.566,0.458-1.023,1.024-1.023c0.566,0,1.023,0.457,1.023,1.023C24.648,31.529,24.191,31.988,23.625,31.988z M33.156,28.915
	H14.094V5.208h19.062V28.915z"/>
<path fill="#352F29" d="M60.135,0.167h-24.02c-0.547,0-0.99,0.443-0.99,0.99v32.685c0,0.549,0.443,0.992,0.99,0.992h24.02
	c0.547,0,0.99-0.443,0.99-0.992V1.157C61.125,0.61,60.682,0.167,60.135,0.167z M48.125,33.842c-0.639,0-1.156-0.516-1.156-1.154
	s0.518-1.154,1.156-1.154s1.156,0.518,1.156,1.154C49.281,33.327,48.764,33.842,48.125,33.842z M60.156,30.377H36.094V3.633h24.062
	V30.377z"/>
<path fill="#352F29" d="M107.657,0H63.343C62.602,0,62,0.601,62,1.343v28.537c0,0.742,0.602,1.344,1.343,1.344h18.689
	c0,0,0,3.811-3.021,3.811v0.723h5.705h5.707v-0.723c-3.021,0-3.021-3.811-3.021-3.811h20.254c0.74,0,1.343-0.602,1.343-1.344V1.343
	C109,0.601,108.398,0,107.657,0z M107.324,29.375H63.457V1.959h43.867V29.375z"/>
<g>
	<g>
		<polygon fill="#352F29" points="120.175,15.5 113.462,11.129 120.604,7.5 		"/>
	</g>
	<path fill="#352F29" d="M127.205,15.825c-1.167-3.445-4.27-5.797-7.9-5.992l-0.173,3.209c2.312,0.124,4.287,1.621,5.029,3.813
		c0.993,2.938-0.587,6.136-3.524,7.129c-1.422,0.481-2.947,0.382-4.293-0.284c-1.347-0.666-2.354-1.814-2.835-3.238
		c-0.6-1.77-0.265-3.711,0.853-5.19l-2.717-1.742c-1.635,2.297-2.095,5.263-1.18,7.966c0.758,2.233,2.34,4.041,4.455,5.086
		c1.234,0.61,2.566,0.92,3.906,0.92c0.953,0,1.91-0.156,2.841-0.471C126.282,25.467,128.768,20.441,127.205,15.825z"/>
</g>
<g>
	<path fill="#F9EFD4" d="M11.516,48.506H0.735c-0.338,0-0.61,0.273-0.61,0.611v18.137c0,0.338,0.272,0.611,0.61,0.611h10.781
		c0.336,0,0.609-0.273,0.609-0.611V49.118C12.125,48.78,11.852,48.506,11.516,48.506z M6.125,67.252
		c-0.393,0-0.712-0.318-0.712-0.711c0-0.396,0.319-0.713,0.712-0.713s0.712,0.316,0.712,0.713
		C6.837,66.934,6.518,67.252,6.125,67.252z M11.527,65.12H0.722V50.643h10.805V65.12L11.527,65.12z"/>
</g>
<path fill="#F9EFD4" d="M33.247,42.821H14.003c-0.485,0-0.878,0.393-0.878,0.878v28.976c0,0.484,0.393,0.877,0.878,0.877h19.244
	c0.483,0,0.878-0.393,0.878-0.877V43.699C34.125,43.213,33.73,42.821,33.247,42.821z M23.625,72.674
	c-0.566,0-1.023-0.459-1.023-1.025s0.457-1.023,1.023-1.023s1.023,0.457,1.023,1.023S24.191,72.674,23.625,72.674z M33.266,69.6
	H13.982V45.893h19.283V69.6z"/>
<path fill="#F9EFD4" d="M60.135,40.852h-24.02c-0.547,0-0.99,0.443-0.99,0.99v32.686c0,0.549,0.443,0.992,0.99,0.992h24.02
	c0.547,0,0.99-0.443,0.99-0.992V41.842C61.125,41.295,60.682,40.852,60.135,40.852z M48.125,74.528
	c-0.639,0-1.156-0.516-1.156-1.154s0.518-1.154,1.156-1.154s1.156,0.518,1.156,1.154C49.281,74.012,48.764,74.528,48.125,74.528z
	 M60.156,71.063H36.094V44.319h24.062V71.063z"/>
<path fill="#F9EFD4" d="M107.782,40.686H63.468c-0.741,0-1.343,0.601-1.343,1.342v28.537c0,0.742,0.602,1.344,1.343,1.344h18.689
	c0,0,0,3.811-3.021,3.811v0.723h5.705h5.707v-0.723c-3.021,0-3.021-3.811-3.021-3.811h20.254c0.74,0,1.343-0.602,1.343-1.344V42.028
	C109.125,41.287,108.523,40.686,107.782,40.686z M107.449,70.061H63.582V42.645h43.867V70.061z"/>
<g>
	<g>
		<polygon fill="#F9EFD4" points="120.3,56.186 113.587,51.815 120.729,48.186 		"/>
	</g>
	<path fill="#F9EFD4" d="M127.33,56.51c-1.167-3.445-4.27-5.797-7.9-5.992l-0.173,3.209c2.312,0.125,4.287,1.621,5.029,3.813
		c0.993,2.938-0.587,6.136-3.524,7.13c-1.422,0.48-2.947,0.381-4.293-0.285c-1.347-0.666-2.354-1.814-2.835-3.238
		c-0.6-1.77-0.265-3.711,0.853-5.19l-2.717-1.742c-1.635,2.298-2.095,5.263-1.18,7.966c0.758,2.234,2.34,4.041,4.455,5.086
		c1.234,0.611,2.566,0.92,3.906,0.92c0.953,0,1.91-0.154,2.841-0.471C126.407,66.153,128.893,61.127,127.33,56.51z"/>
</g>
<path fill="#F9EFD4" d="M138.125,50.686c-4.971,0-9,4.028-9,9c0,4.971,4.029,9,9,9s9-4.029,9-9
	C147.125,54.714,143.096,50.686,138.125,50.686z M144.413,63.264l-2.863,2.793l-3.424-3.508l-3.424,3.508l-2.863-2.793l3.492-3.578
	l-3.492-3.578l2.863-2.795l3.424,3.51l3.424-3.51l2.863,2.795l-3.492,3.578L144.413,63.264z"/>
</svg>
