<?xml version="1.0" encoding="utf-8"?>
<!-- Generator: Adobe Illustrator 16.0.1, SVG Export Plug-In . SVG Version: 6.00 Build 0)  -->
<!DOCTYPE svg PUBLIC "-//W3C//DTD SVG 1.1//EN" "http://www.w3.org/Graphics/SVG/1.1/DTD/svg11.dtd">
<svg version="1.1" id="Layer_1" xmlns="http://www.w3.org/2000/svg" xmlns:xlink="http://www.w3.org/1999/xlink" x="0px" y="0px"
	 width="148px" height="37px" viewBox="0 0 148 37" enable-background="new 0 0 148 37" xml:space="preserve">
<g>
	<path fill="#F9EFD4" d="M11.39,7.821H0.61C0.272,7.821,0,8.095,0,8.432v18.136c0,0.338,0.272,0.611,0.61,0.611h10.78
		c0.337,0,0.61-0.273,0.61-0.611V8.432C12,8.095,11.727,7.821,11.39,7.821z M6,26.566c-0.393,0-0.712-0.317-0.712-0.711
		c0-0.395,0.319-0.713,0.712-0.713s0.712,0.318,0.712,0.713C6.712,26.249,6.393,26.566,6,26.566z M11.402,24.434H0.597V9.957h10.806
		L11.402,24.434L11.402,24.434z"/>
</g>
<path fill="#F9EFD4" d="M33.122,2.135H13.878C13.392,2.135,13,2.528,13,3.013v28.976c0,0.483,0.392,0.877,0.878,0.877h19.244
	c0.483,0,0.878-0.394,0.878-0.877V3.013C34,2.528,33.605,2.135,33.122,2.135z M23.5,31.988c-0.566,0-1.024-0.459-1.024-1.025
	s0.458-1.023,1.024-1.023s1.024,0.457,1.024,1.023S24.066,31.988,23.5,31.988z M33.14,28.914H13.858V5.208H33.14V28.914z"/>
<path fill="#F9EFD4" d="M60.01,0.167H35.99c-0.547,0-0.99,0.443-0.99,0.99v32.685c0,0.549,0.443,0.992,0.99,0.992h24.02
	c0.547,0,0.99-0.443,0.99-0.992V1.157C61,0.61,60.557,0.167,60.01,0.167z M48,33.842c-0.639,0-1.156-0.516-1.156-1.154
	c0-0.638,0.518-1.155,1.156-1.155s1.156,0.518,1.156,1.155C49.156,33.326,48.639,33.842,48,33.842z M60.031,30.377H35.969V3.633
	h24.062V30.377z"/>
<path fill="#F9EFD4" d="M107.657,0H63.343C62.601,0,62,0.601,62,1.343v28.536c0,0.742,0.601,1.344,1.343,1.344h18.689
	c0,0,0,3.811-3.021,3.811v0.722h5.706h5.707v-0.722c-3.021,0-3.021-3.811-3.021-3.811h20.253c0.741,0,1.343-0.602,1.343-1.344V1.343
	C109,0.601,108.398,0,107.657,0z M107.324,29.375H63.457V1.959h43.867V29.375z"/>
<g>
	<g>
		<polygon fill="#F9EFD4" points="120.175,15.5 113.462,11.129 120.604,7.5 		"/>
	</g>
	<path fill="#F9EFD4" d="M127.205,15.825c-1.167-3.445-4.27-5.797-7.9-5.992l-0.173,3.209c2.312,0.124,4.287,1.621,5.029,3.813
		c0.993,2.938-0.587,6.136-3.524,7.129c-1.422,0.482-2.947,0.382-4.293-0.284c-1.347-0.666-2.354-1.815-2.835-3.239
		c-0.6-1.769-0.265-3.711,0.853-5.19l-2.717-1.742c-1.635,2.297-2.095,5.263-1.18,7.965c0.758,2.234,2.34,4.042,4.455,5.087
		c1.234,0.61,2.566,0.92,3.906,0.92c0.953,0,1.91-0.155,2.841-0.472C126.282,25.468,128.768,20.441,127.205,15.825z"/>
</g>
<path fill="#F9EFD4" d="M138,10c-4.97,0-9,4.029-9,9s4.03,9,9,9c4.971,0,9-4.029,9-9S142.971,10,138,10z M144.288,22.579
	l-2.863,2.793l-3.424-3.508l-3.424,3.508l-2.863-2.793L135.206,19l-3.492-3.578l2.863-2.794l3.424,3.509l3.424-3.509l2.863,2.794
	L140.796,19L144.288,22.579z"/>
</svg>
