<?xml version="1.0" encoding="utf-8"?>
<!-- Generator: Adobe Illustrator 16.0.1, SVG Export Plug-In . SVG Version: 6.00 Build 0)  -->
<!DOCTYPE svg PUBLIC "-//W3C//DTD SVG 1.1//EN" "http://www.w3.org/Graphics/SVG/1.1/DTD/svg11.dtd">
<svg version="1.1" id="Layer_1" xmlns="http://www.w3.org/2000/svg" xmlns:xlink="http://www.w3.org/1999/xlink" x="0px" y="0px"
	 width="129px" height="37px" viewBox="0 0 129 37" enable-background="new 0 0 129 37" xml:space="preserve">
<g>
	<path fill="#352F29" d="M11.39,7.821H0.61C0.272,7.821,0,8.095,0,8.432v18.136c0,0.338,0.272,0.611,0.61,0.611h10.78
		c0.337,0,0.61-0.273,0.61-0.611V8.432C12,8.095,11.727,7.821,11.39,7.821z M6,26.567c-0.393,0-0.712-0.318-0.712-0.711
		c0-0.395,0.319-0.713,0.712-0.713s0.712,0.318,0.712,0.713C6.712,26.249,6.393,26.567,6,26.567z M11.031,24.433H0.969V9.957h10.062
		V24.433z"/>
</g>
<path fill="#352F29" d="M33.122,2.135H13.878C13.392,2.135,13,2.528,13,3.013v28.976c0,0.484,0.392,0.877,0.878,0.877h19.244
	c0.483,0,0.878-0.393,0.878-0.877V3.013C34,2.528,33.605,2.135,33.122,2.135z M23.5,31.988c-0.566,0-1.024-0.459-1.024-1.025
	s0.458-1.023,1.024-1.023s1.024,0.457,1.024,1.023S24.066,31.988,23.5,31.988z M33.031,28.914H13.969V5.208h19.062V28.914z"/>
<path fill="#352F29" d="M60.01,0.167H35.99c-0.547,0-0.99,0.443-0.99,0.99v32.685c0,0.549,0.443,0.992,0.99,0.992h24.02
	c0.547,0,0.99-0.443,0.99-0.992V1.157C61,0.61,60.557,0.167,60.01,0.167z M48,33.842c-0.639,0-1.156-0.516-1.156-1.154
	s0.518-1.156,1.156-1.156s1.156,0.518,1.156,1.156S48.639,33.842,48,33.842z M60.031,30.377H35.969V3.633h24.062V30.377z"/>
<path fill="#352F29" d="M107.657,0H63.343C62.601,0,62,0.601,62,1.343v28.536c0,0.742,0.601,1.343,1.343,1.343h18.689
	c0,0,0,3.811-3.021,3.811v0.722h5.707h5.707v-0.722c-3.021,0-3.021-3.811-3.021-3.811h20.253c0.742,0,1.343-0.601,1.343-1.343V1.343
	C109,0.601,108.399,0,107.657,0z M107.324,29.375H63.457V1.959h43.867V29.375z"/>
<g>
	<g>
		<polygon fill="#352F29" points="120.175,15.5 113.462,11.129 120.604,7.5 		"/>
	</g>
	<path fill="#352F29" d="M127.205,15.825c-1.167-3.445-4.269-5.797-7.9-5.992l-0.173,3.209c2.312,0.124,4.287,1.621,5.029,3.813
		c0.994,2.938-0.587,6.136-3.524,7.13c-1.422,0.482-2.947,0.381-4.293-0.285c-1.347-0.666-2.354-1.815-2.835-3.239
		c-0.6-1.769-0.265-3.711,0.852-5.19l-2.716-1.742c-1.635,2.297-2.095,5.263-1.18,7.965c0.757,2.235,2.339,4.042,4.455,5.087
		c1.235,0.611,2.567,0.92,3.906,0.92c0.954,0,1.911-0.156,2.841-0.471C126.282,25.468,128.768,20.441,127.205,15.825z"/>
</g>
</svg>
